<svg width="336" height="80" viewBox="0 0 336 80" fill="none" xmlns="http://www.w3.org/2000/svg">
<path d="M143.733 18.5779H173.715V26.3328H153.114V36.0279H170.965V43.1982H153.114V60.5292H143.733V18.5779Z" fill="white"/>
<path d="M186.97 18.5779H178.488V25.4534H186.97V18.5779Z" fill="white"/>
<path d="M186.97 30.1509H178.488V60.5293H186.97V30.1509Z" fill="white"/>
<path d="M193.66 30.1512H201.72V34.3831H201.899C203.971 31.0152 207.115 29.3286 211.332 29.3286C215.549 29.3286 218.536 30.384 220.171 32.4999C221.801 34.6159 222.621 37.7303 222.621 41.8431V60.5244H214.14V43.3693C214.14 40.7826 213.73 38.8943 212.915 37.6992C212.1 36.5042 210.696 35.9092 208.703 35.9092C206.395 35.9092 204.723 36.5973 203.687 37.9682C202.651 39.3392 202.136 41.5534 202.136 44.6057V60.5296H193.654V30.1512H193.66Z" fill="white"/>
<path d="M250.684 18.5779V33.855H250.563C249.648 32.4065 248.365 31.289 246.708 30.5078C245.057 29.7266 243.296 29.3334 241.424 29.3334C237.123 29.3334 233.768 30.8596 231.36 33.9171C228.952 36.9746 227.748 40.6943 227.748 45.0814C227.748 49.4684 228.952 53.4623 231.36 56.5974C233.768 59.7325 237.181 61.3001 241.603 61.3001C246.025 61.3001 249.106 59.7532 250.978 56.6595H251.099V60.5396H259.16V18.5882H250.678L250.684 18.5779ZM249.28 52.2724C248.144 54.1349 246.283 55.0609 243.696 55.0609C241.109 55.0609 239.368 54.1038 238.111 52.1845C236.855 50.2651 236.229 47.9733 236.229 45.309C236.229 42.6447 236.828 40.2183 238.022 38.3766C239.216 36.5349 241.109 35.614 243.696 35.614C246.283 35.614 248.097 36.5245 249.248 38.3456C250.405 40.1666 250.978 42.4688 250.978 45.2469C250.978 48.025 250.41 50.41 249.274 52.2673L249.28 52.2724Z" fill="white"/>
<path d="M291.351 34.6203C288.685 31.0971 284.841 29.333 279.825 29.333C275.166 29.333 271.375 30.8488 268.452 33.8856C265.528 36.9224 264.061 40.7508 264.061 45.3706C264.061 49.9905 265.486 53.9999 268.331 56.9177C271.175 59.8356 275.009 61.2945 279.825 61.2945C287.228 61.2945 292.045 57.9059 294.274 51.1287H286.808C286.529 52.1478 285.751 53.0584 284.478 53.8602C283.206 54.6621 281.749 55.0656 280.119 55.0656C277.69 55.0656 275.85 54.45 274.598 53.2136C273.342 51.9823 272.658 50.0319 272.537 47.3676H294.811C295.168 42.3959 294.011 38.1434 291.346 34.6203H291.351ZM272.542 42.0803C272.663 40.4766 273.258 38.997 274.335 37.6467C275.408 36.2964 277.164 35.6187 279.588 35.6187C281.581 35.6187 283.101 36.1464 284.158 37.207C285.209 38.2623 285.94 39.892 286.335 42.0855H272.542V42.0803Z" fill="white"/>
<path d="M299.831 30.1512H307.892V35.7902H308.013C308.807 33.8709 310.121 32.3137 311.956 31.1186C313.786 29.9236 315.758 29.3286 317.867 29.3286C318.382 29.3286 319.002 29.4269 319.717 29.6235V37.3785C318.839 37.1819 317.824 37.0836 316.673 37.0836C311.099 37.0836 308.312 40.3377 308.312 46.8355V60.5244H299.831V30.146V30.1512Z" fill="white"/>
<path d="M76.1791 0H30.7224C30.1755 0 29.7338 0.279364 29.5445 0.734626L21.6047 20.1867C21.4207 20.642 20.9737 20.9213 20.4269 20.9213H1.27146C0.0568303 20.9213 -0.416404 22.2251 0.4249 23.2494L15.0583 41.0925C15.4422 41.5582 16.0101 41.8427 16.5622 41.8427H35.1918C36.4432 41.8427 37.4843 43.2188 37.0059 44.2432L30.2018 58.7133C29.9704 59.2047 30.0861 59.8462 30.5015 60.3532L45.8816 79.2414C46.7071 80.2606 48.2057 80.2502 48.5843 79.2259L61.4878 44.1449C61.8664 43.1205 60.8358 41.8427 59.6369 41.8427H42.2377C41.6856 41.8427 41.1125 41.5582 40.7339 41.0925L26.1004 23.2494C25.2591 22.2251 25.7324 20.9213 26.947 20.9213H69.5643C70.1111 20.9213 70.5528 20.642 70.7421 20.1867L78.0247 2.34356C78.4453 1.31922 77.4095 0 76.1896 0H76.1791Z" fill="url(#paint0_linear_1_1034)"/>
<path d="M45.9501 33.1876H41.4597C40.8234 33.1876 40.3134 32.6341 40.4028 32.0495L41.0653 27.7711C41.1337 27.3417 41.5123 27.0312 41.9802 27.0312H46.4707C47.1069 27.0312 47.617 27.5848 47.5276 28.1694L46.8651 32.4478C46.7967 32.8772 46.4181 33.1876 45.9501 33.1876Z" fill="white"/>
<path d="M61.9462 33.1876H57.4558C56.8195 33.1876 56.3095 32.6341 56.3989 32.0495L57.0614 27.7711C57.1297 27.3417 57.5083 27.0312 57.9763 27.0312H62.4668C63.103 27.0312 63.6131 27.5848 63.5237 28.1694L62.8611 32.4478C62.7928 32.8772 62.4142 33.1876 61.9462 33.1876Z" fill="white"/>
<path d="M117.848 19.2633H109.409C109.229 19.2633 109.06 19.3481 108.954 19.4893L78.5621 59.849C78.2831 60.2162 78.5539 60.7408 79.0177 60.7408H87.0086C87.1933 60.7408 87.3657 60.652 87.4724 60.5027L93.7723 51.7383C93.879 51.589 94.0514 51.5002 94.2361 51.5002H108.773C109.093 51.5002 109.352 51.7625 109.34 52.0773L109.089 60.1597C109.081 60.4744 109.335 60.7367 109.656 60.7367H117.626C117.938 60.7367 118.192 60.4865 118.196 60.1799L118.414 19.8202C118.414 19.5095 118.16 19.2593 117.843 19.2593L117.848 19.2633ZM109.598 44.1643C109.59 44.4669 109.34 44.7091 109.032 44.7091H100.003C99.5428 44.7091 99.272 44.1966 99.5387 43.8254L109.902 29.4884H110.017L109.598 44.1643Z" fill="url(#paint1_linear_1_1034)"/>
<path d="M128.523 20.7407H124.587C123.63 20.7407 122.854 21.4944 122.854 22.4241V24.9833C122.854 25.913 123.63 26.6666 124.587 26.6666H128.523C129.48 26.6666 130.255 25.913 130.255 24.9833V22.4241C130.255 21.4944 129.48 20.7407 128.523 20.7407Z" fill="url(#paint2_linear_1_1034)"/>
<path d="M128.523 31.1111H124.587C123.63 31.1111 122.854 31.9638 122.854 33.0157V58.8361C122.854 59.888 123.63 60.7407 124.587 60.7407H128.523C129.48 60.7407 130.255 59.888 130.255 58.8361V33.0157C130.255 31.9638 129.48 31.1111 128.523 31.1111Z" fill="url(#paint3_linear_1_1034)"/>
<defs>
<linearGradient id="paint0_linear_1_1034" x1="78.12" y1="4.03101" x2="6.40034" y2="81.5783" gradientUnits="userSpaceOnUse">
<stop stop-color="#7E3FFF"/>
<stop offset="0.265" stop-color="#565CDD"/>
<stop offset="0.665" stop-color="#369ED6"/>
<stop offset="1" stop-color="#1CD5D0"/>
</linearGradient>
<linearGradient id="paint1_linear_1_1034" x1="118.414" y1="21.3494" x2="81.1903" y2="61.0593" gradientUnits="userSpaceOnUse">
<stop stop-color="#7E3FFF"/>
<stop offset="0.265" stop-color="#565CDD"/>
<stop offset="0.665" stop-color="#369ED6"/>
<stop offset="1" stop-color="#1CD5D0"/>
</linearGradient>
<linearGradient id="paint2_linear_1_1034" x1="130.255" y1="21.0393" x2="125.195" y2="28.0374" gradientUnits="userSpaceOnUse">
<stop stop-color="#7E3FFF"/>
<stop offset="0.265" stop-color="#565CDD"/>
<stop offset="0.665" stop-color="#369ED6"/>
<stop offset="1" stop-color="#1CD5D0"/>
</linearGradient>
<linearGradient id="paint3_linear_1_1034" x1="130.255" y1="32.6041" x2="116.565" y2="36.3906" gradientUnits="userSpaceOnUse">
<stop stop-color="#7E3FFF"/>
<stop offset="0.265" stop-color="#565CDD"/>
<stop offset="0.665" stop-color="#369ED6"/>
<stop offset="1" stop-color="#1CD5D0"/>
</linearGradient>
</defs>
</svg>
